<mxfile host="Electron" agent="Mozilla/5.0 (Windows NT 10.0; Win64; x64) AppleWebKit/537.36 (KHTML, like Gecko) draw.io/24.7.17 Chrome/128.0.6613.36 Electron/32.0.1 Safari/537.36" version="24.7.17">
  <diagram id="fNGxIXpBLUVrvc0NW0K0" name="arch-1">
    <mxGraphModel dx="1221" dy="734" grid="0" gridSize="10" guides="0" tooltips="1" connect="0" arrows="1" fold="1" page="1" pageScale="1" pageWidth="1169" pageHeight="827" math="0" shadow="0">
      <root>
        <mxCell id="0" />
        <mxCell id="1" parent="0" />
        <mxCell id="WlBfQYCDGkGJMAmVKwzh-1" value="VPC" style="sketch=0;outlineConnect=0;gradientColor=none;html=1;whiteSpace=wrap;fontSize=12;fontStyle=0;shape=mxgraph.aws4.group;grIcon=mxgraph.aws4.group_vpc;strokeColor=#879196;fillColor=none;verticalAlign=top;align=left;spacingLeft=30;fontColor=#879196;dashed=0;movable=1;resizable=1;rotatable=1;deletable=1;editable=1;locked=0;connectable=1;" parent="1" vertex="1">
          <mxGeometry x="270" y="290" width="570" height="280" as="geometry" />
        </mxCell>
        <mxCell id="WlBfQYCDGkGJMAmVKwzh-4" value="Private subnet" style="points=[[0,0],[0.25,0],[0.5,0],[0.75,0],[1,0],[1,0.25],[1,0.5],[1,0.75],[1,1],[0.75,1],[0.5,1],[0.25,1],[0,1],[0,0.75],[0,0.5],[0,0.25]];outlineConnect=0;gradientColor=none;html=1;whiteSpace=wrap;fontSize=12;fontStyle=0;container=1;pointerEvents=0;collapsible=0;recursiveResize=0;shape=mxgraph.aws4.group;grIcon=mxgraph.aws4.group_security_group;grStroke=0;strokeColor=#00A4A6;fillColor=#E6F6F7;verticalAlign=top;align=left;spacingLeft=30;fontColor=#147EBA;dashed=0;" parent="1" vertex="1">
          <mxGeometry x="560" y="320" width="240.00000000000006" height="231" as="geometry" />
        </mxCell>
        <mxCell id="WlBfQYCDGkGJMAmVKwzh-41" value="" style="group" parent="WlBfQYCDGkGJMAmVKwzh-4" vertex="1" connectable="0">
          <mxGeometry x="20" y="75" width="81" height="85" as="geometry" />
        </mxCell>
        <mxCell id="WlBfQYCDGkGJMAmVKwzh-11" value="" style="rounded=1;arcSize=10;dashed=1;strokeColor=#ff0000;fillColor=none;gradientColor=none;dashPattern=8 4;strokeWidth=2;movable=1;resizable=1;rotatable=1;deletable=1;editable=1;locked=0;connectable=1;" parent="WlBfQYCDGkGJMAmVKwzh-41" vertex="1">
          <mxGeometry width="70" height="85" as="geometry" />
        </mxCell>
        <mxCell id="WlBfQYCDGkGJMAmVKwzh-12" value="ec2" style="outlineConnect=0;dashed=0;verticalLabelPosition=bottom;verticalAlign=top;align=center;html=1;shape=mxgraph.aws3.ec2;fillColor=#F58534;gradientColor=none;" parent="WlBfQYCDGkGJMAmVKwzh-41" vertex="1">
          <mxGeometry x="10.88" width="48.25" height="32.69230769230769" as="geometry" />
        </mxCell>
        <mxCell id="WlBfQYCDGkGJMAmVKwzh-50" value="" style="outlineConnect=0;dashed=0;verticalLabelPosition=bottom;verticalAlign=top;align=center;html=1;shape=mxgraph.aws3.role;fillColor=#759C3E;gradientColor=none;" parent="WlBfQYCDGkGJMAmVKwzh-41" vertex="1">
          <mxGeometry x="-10" y="-9.807692307692308" width="40" height="19.615384615384617" as="geometry" />
        </mxCell>
        <mxCell id="WlBfQYCDGkGJMAmVKwzh-79" value="f39" style="text;html=1;align=center;verticalAlign=middle;resizable=0;points=[];autosize=1;strokeColor=none;fillColor=none;" parent="WlBfQYCDGkGJMAmVKwzh-41" vertex="1">
          <mxGeometry x="45" y="-24" width="35" height="26" as="geometry" />
        </mxCell>
        <mxCell id="WlBfQYCDGkGJMAmVKwzh-72" style="edgeStyle=orthogonalEdgeStyle;rounded=0;orthogonalLoop=1;jettySize=auto;html=1;elbow=vertical;curved=1;" parent="WlBfQYCDGkGJMAmVKwzh-4" source="WlBfQYCDGkGJMAmVKwzh-11" target="WlBfQYCDGkGJMAmVKwzh-69" edge="1">
          <mxGeometry relative="1" as="geometry" />
        </mxCell>
        <mxCell id="WlBfQYCDGkGJMAmVKwzh-62" value="&lt;span style=&quot;color: rgb(22, 25, 31); font-family: &amp;quot;Amazon Ember&amp;quot;, &amp;quot;Helvetica Neue&amp;quot;, Roboto, Arial, sans-serif; font-size: 14px; text-align: start; text-wrap: wrap; background-color: rgb(255, 255, 255);&quot;&gt;153-&lt;/span&gt;&lt;span style=&quot;font-family: &amp;quot;Times New Roman&amp;quot;; font-size: 14px; text-align: start; white-space-collapse: preserve;&quot;&gt;10.0.0.46&lt;/span&gt;" style="text;html=1;align=center;verticalAlign=middle;resizable=0;points=[];autosize=1;strokeColor=none;fillColor=none;" parent="WlBfQYCDGkGJMAmVKwzh-4" vertex="1">
          <mxGeometry x="5" y="170" width="100" height="30" as="geometry" />
        </mxCell>
        <mxCell id="WlBfQYCDGkGJMAmVKwzh-66" value="9fa" style="text;html=1;align=center;verticalAlign=middle;resizable=0;points=[];autosize=1;strokeColor=none;fillColor=none;" parent="WlBfQYCDGkGJMAmVKwzh-4" vertex="1">
          <mxGeometry x="35" y="10" width="40" height="30" as="geometry" />
        </mxCell>
        <mxCell id="WlBfQYCDGkGJMAmVKwzh-69" value="SQS-EP-453&lt;br&gt;&lt;span style=&quot;color: rgb(22, 25, 31); font-family: &amp;quot;Amazon Ember&amp;quot;, &amp;quot;Helvetica Neue&amp;quot;, Roboto, Arial, sans-serif; font-size: 14px; text-align: start; text-wrap: wrap; background-color: rgb(255, 255, 255);&quot;&gt;10.0.0.23&lt;/span&gt;" style="sketch=0;outlineConnect=0;fontColor=#232F3E;gradientColor=none;strokeColor=#232F3E;fillColor=#ffffff;dashed=0;verticalLabelPosition=bottom;verticalAlign=top;align=center;html=1;fontSize=12;fontStyle=0;aspect=fixed;shape=mxgraph.aws4.resourceIcon;resIcon=mxgraph.aws4.elastic_network_interface;" parent="WlBfQYCDGkGJMAmVKwzh-4" vertex="1">
          <mxGeometry x="163" y="153" width="49" height="49" as="geometry" />
        </mxCell>
        <mxCell id="WlBfQYCDGkGJMAmVKwzh-54" value="prv-rt-" style="sketch=0;outlineConnect=0;fontColor=#232F3E;gradientColor=none;fillColor=#8C4FFF;strokeColor=none;dashed=0;verticalLabelPosition=bottom;verticalAlign=top;align=center;html=1;fontSize=12;fontStyle=0;aspect=fixed;pointerEvents=1;shape=mxgraph.aws4.route_table;" parent="WlBfQYCDGkGJMAmVKwzh-4" vertex="1">
          <mxGeometry x="198.95000000000005" y="-27" width="41.05" height="40" as="geometry" />
        </mxCell>
        <mxCell id="WlBfQYCDGkGJMAmVKwzh-5" value="Public subnet" style="points=[[0,0],[0.25,0],[0.5,0],[0.75,0],[1,0],[1,0.25],[1,0.5],[1,0.75],[1,1],[0.75,1],[0.5,1],[0.25,1],[0,1],[0,0.75],[0,0.5],[0,0.25]];outlineConnect=0;gradientColor=none;html=1;whiteSpace=wrap;fontSize=12;fontStyle=0;container=1;pointerEvents=0;collapsible=0;recursiveResize=0;shape=mxgraph.aws4.group;grIcon=mxgraph.aws4.group_security_group;grStroke=0;strokeColor=#7AA116;fillColor=#F2F6E8;verticalAlign=top;align=left;spacingLeft=30;fontColor=#248814;dashed=0;" parent="1" vertex="1">
          <mxGeometry x="320" y="320" width="200" height="230" as="geometry" />
        </mxCell>
        <mxCell id="WlBfQYCDGkGJMAmVKwzh-61" value="&lt;span style=&quot;color: rgb(22, 25, 31); font-family: &amp;quot;Amazon Ember&amp;quot;, &amp;quot;Helvetica Neue&amp;quot;, Roboto, Arial, sans-serif; font-size: 14px; text-align: start; text-wrap: wrap; background-color: rgb(255, 255, 255);&quot;&gt;cb6 -&lt;/span&gt;&lt;span style=&quot;font-family: &amp;quot;Times New Roman&amp;quot;; font-size: 14px; text-align: start; white-space-collapse: preserve;&quot;&gt;10.0.0.108&lt;/span&gt;" style="text;html=1;align=center;verticalAlign=middle;resizable=0;points=[];autosize=1;strokeColor=none;fillColor=none;" parent="WlBfQYCDGkGJMAmVKwzh-5" vertex="1">
          <mxGeometry x="20" y="150" width="110" height="30" as="geometry" />
        </mxCell>
        <mxCell id="WlBfQYCDGkGJMAmVKwzh-65" value="167" style="text;html=1;align=center;verticalAlign=middle;resizable=0;points=[];autosize=1;strokeColor=none;fillColor=none;" parent="WlBfQYCDGkGJMAmVKwzh-5" vertex="1">
          <mxGeometry x="20" y="10" width="40" height="30" as="geometry" />
        </mxCell>
        <mxCell id="WlBfQYCDGkGJMAmVKwzh-107" value="&lt;span style=&quot;color: rgb(22, 25, 31); font-family: &amp;quot;Amazon Ember&amp;quot;, &amp;quot;Helvetica Neue&amp;quot;, Roboto, Arial, sans-serif; text-align: start; text-wrap: wrap; background-color: rgb(242, 243, 243);&quot;&gt;&lt;font style=&quot;font-size: 10px;&quot;&gt;nz-natgw&lt;/font&gt;&lt;/span&gt;" style="sketch=0;outlineConnect=0;fontColor=#232F3E;gradientColor=none;strokeColor=#232F3E;fillColor=#ffffff;dashed=0;verticalLabelPosition=bottom;verticalAlign=top;align=center;html=1;fontSize=12;fontStyle=0;aspect=fixed;shape=mxgraph.aws4.resourceIcon;resIcon=mxgraph.aws4.nat_gateway;" parent="WlBfQYCDGkGJMAmVKwzh-5" vertex="1">
          <mxGeometry x="126" y="179" width="19" height="19" as="geometry" />
        </mxCell>
        <mxCell id="WlBfQYCDGkGJMAmVKwzh-9" value="" style="group" parent="1" vertex="1" connectable="0">
          <mxGeometry x="380" y="370" width="88" height="90" as="geometry" />
        </mxCell>
        <mxCell id="WlBfQYCDGkGJMAmVKwzh-8" value="" style="rounded=1;arcSize=10;dashed=1;strokeColor=#ff0000;fillColor=none;gradientColor=none;dashPattern=8 4;strokeWidth=2;" parent="WlBfQYCDGkGJMAmVKwzh-9" vertex="1">
          <mxGeometry width="70" height="90" as="geometry" />
        </mxCell>
        <mxCell id="WlBfQYCDGkGJMAmVKwzh-6" value="ec2" style="outlineConnect=0;dashed=0;verticalLabelPosition=bottom;verticalAlign=top;align=center;html=1;shape=mxgraph.aws3.ec2;fillColor=#F58534;gradientColor=none;" parent="WlBfQYCDGkGJMAmVKwzh-9" vertex="1">
          <mxGeometry x="6" width="48.25" height="60" as="geometry" />
        </mxCell>
        <mxCell id="WlBfQYCDGkGJMAmVKwzh-49" value="" style="outlineConnect=0;dashed=0;verticalLabelPosition=bottom;verticalAlign=top;align=center;html=1;shape=mxgraph.aws3.role;fillColor=#759C3E;gradientColor=none;" parent="WlBfQYCDGkGJMAmVKwzh-9" vertex="1">
          <mxGeometry x="-10" y="-20" width="40" height="30" as="geometry" />
        </mxCell>
        <mxCell id="WlBfQYCDGkGJMAmVKwzh-80" value="d13" style="text;html=1;align=center;verticalAlign=middle;resizable=0;points=[];autosize=1;strokeColor=none;fillColor=none;" parent="WlBfQYCDGkGJMAmVKwzh-9" vertex="1">
          <mxGeometry x="50" y="-19" width="38" height="26" as="geometry" />
        </mxCell>
        <mxCell id="WlBfQYCDGkGJMAmVKwzh-53" value="pb-rt-" style="sketch=0;outlineConnect=0;fontColor=#232F3E;gradientColor=none;fillColor=#8C4FFF;strokeColor=none;dashed=0;verticalLabelPosition=bottom;verticalAlign=top;align=center;html=1;fontSize=12;fontStyle=0;aspect=fixed;pointerEvents=1;shape=mxgraph.aws4.route_table;" parent="1" vertex="1">
          <mxGeometry x="478.95" y="320" width="41.05" height="40" as="geometry" />
        </mxCell>
        <mxCell id="WlBfQYCDGkGJMAmVKwzh-56" value="EIC-EP-SVC" style="sketch=0;outlineConnect=0;fontColor=#232F3E;gradientColor=none;fillColor=#8C4FFF;strokeColor=none;dashed=0;verticalLabelPosition=bottom;verticalAlign=top;align=center;html=1;fontSize=12;fontStyle=0;aspect=fixed;pointerEvents=1;shape=mxgraph.aws4.endpoint;" parent="1" vertex="1">
          <mxGeometry x="881" y="375" width="34" height="34" as="geometry" />
        </mxCell>
        <mxCell id="WlBfQYCDGkGJMAmVKwzh-59" value="session manager" style="sketch=0;outlineConnect=0;fontColor=#232F3E;gradientColor=none;fillColor=#E7157B;strokeColor=none;dashed=0;verticalLabelPosition=bottom;verticalAlign=top;align=center;html=1;fontSize=12;fontStyle=0;aspect=fixed;pointerEvents=1;shape=mxgraph.aws4.systems_manager_session_manager;" parent="1" vertex="1">
          <mxGeometry x="393" y="122" width="78" height="78" as="geometry" />
        </mxCell>
        <mxCell id="WlBfQYCDGkGJMAmVKwzh-60" style="edgeStyle=orthogonalEdgeStyle;rounded=0;orthogonalLoop=1;jettySize=auto;html=1;exitX=0.75;exitY=0;exitDx=0;exitDy=0;" parent="1" source="WlBfQYCDGkGJMAmVKwzh-8" target="WlBfQYCDGkGJMAmVKwzh-59" edge="1">
          <mxGeometry relative="1" as="geometry" />
        </mxCell>
        <mxCell id="WlBfQYCDGkGJMAmVKwzh-57" style="edgeStyle=orthogonalEdgeStyle;rounded=0;orthogonalLoop=1;jettySize=auto;html=1;curved=1;" parent="1" source="WlBfQYCDGkGJMAmVKwzh-63" target="WlBfQYCDGkGJMAmVKwzh-56" edge="1">
          <mxGeometry relative="1" as="geometry" />
        </mxCell>
        <mxCell id="WlBfQYCDGkGJMAmVKwzh-64" value="" style="edgeStyle=orthogonalEdgeStyle;rounded=0;orthogonalLoop=1;jettySize=auto;html=1;curved=1;" parent="1" source="WlBfQYCDGkGJMAmVKwzh-12" target="WlBfQYCDGkGJMAmVKwzh-63" edge="1">
          <mxGeometry relative="1" as="geometry">
            <mxPoint x="639" y="411" as="sourcePoint" />
            <mxPoint x="1009" y="168" as="targetPoint" />
          </mxGeometry>
        </mxCell>
        <mxCell id="WlBfQYCDGkGJMAmVKwzh-63" value="EIC-EP" style="sketch=0;outlineConnect=0;fontColor=#232F3E;gradientColor=none;strokeColor=#232F3E;fillColor=#ffffff;dashed=0;verticalLabelPosition=bottom;verticalAlign=top;align=center;html=1;fontSize=12;fontStyle=0;aspect=fixed;shape=mxgraph.aws4.resourceIcon;resIcon=mxgraph.aws4.elastic_network_interface;" parent="1" vertex="1">
          <mxGeometry x="722" y="378" width="38" height="38" as="geometry" />
        </mxCell>
        <mxCell id="WlBfQYCDGkGJMAmVKwzh-67" value="de3-&amp;nbsp;&lt;span style=&quot;color: rgb(22, 25, 31); font-family: &amp;quot;Amazon Ember&amp;quot;, &amp;quot;Helvetica Neue&amp;quot;, Roboto, Arial, sans-serif; font-size: 14px; text-align: start; background-color: rgb(241, 250, 255);&quot;&gt;10.0.0.0/24&lt;/span&gt;" style="text;html=1;align=center;verticalAlign=middle;resizable=0;points=[];autosize=1;strokeColor=none;fillColor=none;" parent="1" vertex="1">
          <mxGeometry x="321" y="289" width="117" height="29" as="geometry" />
        </mxCell>
        <mxCell id="WlBfQYCDGkGJMAmVKwzh-70" value="SQS-EP-SVC-0eb&lt;div&gt;&lt;br&gt;&lt;/div&gt;" style="sketch=0;outlineConnect=0;fontColor=#232F3E;gradientColor=none;fillColor=#8C4FFF;strokeColor=none;dashed=0;verticalLabelPosition=bottom;verticalAlign=top;align=center;html=1;fontSize=12;fontStyle=0;aspect=fixed;pointerEvents=1;shape=mxgraph.aws4.endpoint;" parent="1" vertex="1">
          <mxGeometry x="899" y="498" width="27" height="27" as="geometry" />
        </mxCell>
        <mxCell id="WlBfQYCDGkGJMAmVKwzh-71" style="edgeStyle=orthogonalEdgeStyle;rounded=0;orthogonalLoop=1;jettySize=auto;html=1;curved=1;" parent="1" source="WlBfQYCDGkGJMAmVKwzh-69" target="WlBfQYCDGkGJMAmVKwzh-70" edge="1">
          <mxGeometry relative="1" as="geometry" />
        </mxCell>
        <mxCell id="WlBfQYCDGkGJMAmVKwzh-78" value="" style="group" parent="1" vertex="1" connectable="0">
          <mxGeometry x="715" y="453" width="88" height="66" as="geometry" />
        </mxCell>
        <mxCell id="WlBfQYCDGkGJMAmVKwzh-74" value="" style="rounded=1;arcSize=10;dashed=1;strokeColor=#ff0000;fillColor=none;gradientColor=none;dashPattern=8 4;strokeWidth=2;movable=1;resizable=1;rotatable=1;deletable=1;editable=1;locked=0;connectable=1;" parent="WlBfQYCDGkGJMAmVKwzh-78" vertex="1">
          <mxGeometry x="-7" y="24.004285714285714" width="79.9080459770115" height="50.57142857142857" as="geometry" />
        </mxCell>
        <mxCell id="WlBfQYCDGkGJMAmVKwzh-77" value="fee" style="text;html=1;align=center;verticalAlign=middle;resizable=0;points=[];autosize=1;strokeColor=none;fillColor=none;" parent="WlBfQYCDGkGJMAmVKwzh-78" vertex="1">
          <mxGeometry x="51.58620689655173" width="35" height="26" as="geometry" />
        </mxCell>
        <mxCell id="WlBfQYCDGkGJMAmVKwzh-83" value="" style="edgeStyle=orthogonalEdgeStyle;endArrow=classic;html=1;rounded=0;endSize=8;startSize=8;sourcePerimeterSpacing=0;targetPerimeterSpacing=0;entryX=0.014;entryY=0.879;entryDx=0;entryDy=0;entryPerimeter=0;curved=1;" parent="1" edge="1">
          <mxGeometry width="100" relative="1" as="geometry">
            <mxPoint x="446" y="416" as="sourcePoint" />
            <mxPoint x="707.1187126436782" y="523.4565714285714" as="targetPoint" />
            <Array as="points">
              <mxPoint x="446" y="417" />
              <mxPoint x="551" y="417" />
              <mxPoint x="551" y="536" />
              <mxPoint x="707" y="536" />
            </Array>
          </mxGeometry>
        </mxCell>
        <mxCell id="WlBfQYCDGkGJMAmVKwzh-84" value="vpn-eni" style="sketch=0;outlineConnect=0;fontColor=#232F3E;gradientColor=none;strokeColor=#232F3E;fillColor=#ffffff;dashed=0;verticalLabelPosition=bottom;verticalAlign=top;align=center;html=1;fontSize=12;fontStyle=0;aspect=fixed;shape=mxgraph.aws4.resourceIcon;resIcon=mxgraph.aws4.elastic_network_interface;" parent="1" vertex="1">
          <mxGeometry x="686" y="334" width="29" height="29" as="geometry" />
        </mxCell>
        <mxCell id="WlBfQYCDGkGJMAmVKwzh-93" style="edgeStyle=orthogonalEdgeStyle;curved=1;rounded=0;orthogonalLoop=1;jettySize=auto;html=1;strokeColor=#172EFF;" parent="1" source="WlBfQYCDGkGJMAmVKwzh-87" target="WlBfQYCDGkGJMAmVKwzh-91" edge="1">
          <mxGeometry relative="1" as="geometry" />
        </mxCell>
        <mxCell id="WlBfQYCDGkGJMAmVKwzh-87" value="machine client&lt;br&gt;&lt;span style=&quot;color: rgb(22, 25, 31); font-family: &amp;quot;Amazon Ember&amp;quot;, &amp;quot;Helvetica Neue&amp;quot;, Roboto, Arial, sans-serif; font-size: 14px; text-align: start; background-color: rgb(241, 250, 255);&quot;&gt;10.10.0.0/16&lt;/span&gt;" style="image;aspect=fixed;perimeter=ellipsePerimeter;html=1;align=center;shadow=0;dashed=0;spacingTop=3;image=img/lib/active_directory/laptop_client.svg;" parent="1" vertex="1">
          <mxGeometry x="875" y="140" width="45" height="50" as="geometry" />
        </mxCell>
        <mxCell id="WlBfQYCDGkGJMAmVKwzh-90" style="edgeStyle=orthogonalEdgeStyle;curved=1;rounded=0;orthogonalLoop=1;jettySize=auto;html=1;entryX=1.062;entryY=0.489;entryDx=0;entryDy=0;entryPerimeter=0;strokeColor=#172EFF;" parent="1" source="WlBfQYCDGkGJMAmVKwzh-84" target="WlBfQYCDGkGJMAmVKwzh-8" edge="1">
          <mxGeometry relative="1" as="geometry" />
        </mxCell>
        <mxCell id="WlBfQYCDGkGJMAmVKwzh-94" style="edgeStyle=orthogonalEdgeStyle;curved=1;rounded=0;orthogonalLoop=1;jettySize=auto;html=1;fillColor=#172EFF;strokeColor=#172EFF;" parent="1" source="WlBfQYCDGkGJMAmVKwzh-91" target="WlBfQYCDGkGJMAmVKwzh-84" edge="1">
          <mxGeometry relative="1" as="geometry" />
        </mxCell>
        <mxCell id="WlBfQYCDGkGJMAmVKwzh-91" value="client VPN EP Service-ef5" style="sketch=0;points=[[0,0,0],[0.25,0,0],[0.5,0,0],[0.75,0,0],[1,0,0],[0,1,0],[0.25,1,0],[0.5,1,0],[0.75,1,0],[1,1,0],[0,0.25,0],[0,0.5,0],[0,0.75,0],[1,0.25,0],[1,0.5,0],[1,0.75,0]];outlineConnect=0;fontColor=#232F3E;fillColor=#8C4FFF;strokeColor=#ffffff;dashed=0;verticalLabelPosition=bottom;verticalAlign=top;align=center;html=1;fontSize=12;fontStyle=0;aspect=fixed;shape=mxgraph.aws4.resourceIcon;resIcon=mxgraph.aws4.client_vpn;" parent="1" vertex="1">
          <mxGeometry x="715" y="211" width="42" height="42" as="geometry" />
        </mxCell>
        <mxCell id="WlBfQYCDGkGJMAmVKwzh-92" value="ACM" style="sketch=0;points=[[0,0,0],[0.25,0,0],[0.5,0,0],[0.75,0,0],[1,0,0],[0,1,0],[0.25,1,0],[0.5,1,0],[0.75,1,0],[1,1,0],[0,0.25,0],[0,0.5,0],[0,0.75,0],[1,0.25,0],[1,0.5,0],[1,0.75,0]];outlineConnect=0;fontColor=#232F3E;fillColor=#DD344C;strokeColor=#ffffff;dashed=0;verticalLabelPosition=bottom;verticalAlign=top;align=center;html=1;fontSize=12;fontStyle=0;aspect=fixed;shape=mxgraph.aws4.resourceIcon;resIcon=mxgraph.aws4.certificate_manager_3;" parent="1" vertex="1">
          <mxGeometry x="694" y="97" width="56" height="56" as="geometry" />
        </mxCell>
        <mxCell id="WlBfQYCDGkGJMAmVKwzh-95" value="&lt;a style=&quot;background-color: rgb(35, 47, 62); display: flex; align-items: center; font-size: 15px; line-height: 24px; min-height: auto; text-decoration-line: none; border: none; height: auto; font-weight: 700; outline: none; font-family: &amp;quot;Amazon Ember&amp;quot;, &amp;quot;Helvetica Neue&amp;quot;, Roboto, Arial, sans-serif; text-align: left; color: rgb(236, 114, 17) !important;&quot; class=&quot;_nav-dropdown__dropdown-item_getc9_83 _awsc-region-menu-item--selected_165br_1252&quot; data-region-opt-in=&quot;false&quot; data-region-id=&quot;us-east-2&quot; target=&quot;_top&quot; href=&quot;https://us-east-2.console.aws.amazon.com/ec2-instance-connect/ssh?connType=eice&amp;amp;instanceConnectEndpointId=eice-05c2011627464bebb&amp;amp;instanceId=i-0ebeff13376fdf153&amp;amp;maxTunnelDuration=3600&amp;amp;osUser=ec2-user&amp;amp;privateIp=10.0.0.46&amp;amp;region=us-east-2&amp;amp;sshPort=22#/&quot;&gt;&lt;span style=&quot;pointer-events: none; display: flex; justify-content: space-between; width: 275.667px;&quot; class=&quot;_awsc-region-menu-item-region_165br_1233&quot;&gt;&lt;span style=&quot;padding-left: 10px; pointer-events: none;&quot; class=&quot;_awsc-region-menu-item-region__code_165br_1233&quot;&gt;us-east-2&lt;/span&gt;&lt;/span&gt;&lt;/a&gt;" style="text;html=1;align=center;verticalAlign=middle;resizable=0;points=[];autosize=1;strokeColor=none;fillColor=none;" parent="1" vertex="1">
          <mxGeometry x="114" y="106" width="294" height="36" as="geometry" />
        </mxCell>
        <mxCell id="WlBfQYCDGkGJMAmVKwzh-103" value="" style="group" parent="1" vertex="1" connectable="0">
          <mxGeometry x="683" y="330" width="205" height="53" as="geometry" />
        </mxCell>
        <mxCell id="WlBfQYCDGkGJMAmVKwzh-97" value="" style="rounded=1;arcSize=10;dashed=1;strokeColor=#ff0000;fillColor=none;gradientColor=none;dashPattern=8 4;strokeWidth=2;" parent="WlBfQYCDGkGJMAmVKwzh-103" vertex="1">
          <mxGeometry width="78" height="53" as="geometry" />
        </mxCell>
        <mxCell id="WlBfQYCDGkGJMAmVKwzh-101" value="demo-client-vpn-sg-8a0" style="text;html=1;align=center;verticalAlign=middle;resizable=0;points=[];autosize=1;strokeColor=none;fillColor=none;" parent="WlBfQYCDGkGJMAmVKwzh-103" vertex="1">
          <mxGeometry x="61" y="24.999729729729722" width="144" height="26" as="geometry" />
        </mxCell>
        <mxCell id="WlBfQYCDGkGJMAmVKwzh-104" value="authorisation rules&amp;nbsp;" style="whiteSpace=wrap;html=1;fillColor=#e1d5e7;strokeColor=#9673a6;" parent="1" vertex="1">
          <mxGeometry x="655" y="275" width="120" height="22" as="geometry" />
        </mxCell>
        <mxCell id="WlBfQYCDGkGJMAmVKwzh-105" value="Internet&#xa;gateway" style="sketch=0;outlineConnect=0;fontColor=#232F3E;gradientColor=none;strokeColor=#232F3E;fillColor=#ffffff;dashed=0;verticalLabelPosition=bottom;verticalAlign=top;align=center;html=1;fontSize=12;fontStyle=0;aspect=fixed;shape=mxgraph.aws4.resourceIcon;resIcon=mxgraph.aws4.internet_gateway;" parent="1" vertex="1">
          <mxGeometry x="511" y="217" width="50" height="50" as="geometry" />
        </mxCell>
        <mxCell id="WlBfQYCDGkGJMAmVKwzh-108" value="split Tunnel" style="html=1;strokeWidth=2;outlineConnect=0;dashed=0;align=center;fontSize=8;fillColor=#c0f5a9;verticalLabelPosition=bottom;verticalAlign=top;shape=mxgraph.eip.splitter;" parent="1" vertex="1">
          <mxGeometry x="666" y="206" width="45" height="25" as="geometry" />
        </mxCell>
        <mxCell id="WlBfQYCDGkGJMAmVKwzh-115" style="edgeStyle=orthogonalEdgeStyle;curved=1;rounded=0;orthogonalLoop=1;jettySize=auto;html=1;" parent="1" source="WlBfQYCDGkGJMAmVKwzh-110" target="WlBfQYCDGkGJMAmVKwzh-132" edge="1">
          <mxGeometry relative="1" as="geometry">
            <mxPoint x="237.5999999999999" y="619" as="targetPoint" />
            <Array as="points">
              <mxPoint x="112" y="655" />
            </Array>
          </mxGeometry>
        </mxCell>
        <mxCell id="WlBfQYCDGkGJMAmVKwzh-110" value="nz-peer-vpc-e9c" style="outlineConnect=0;dashed=0;verticalLabelPosition=bottom;verticalAlign=top;align=center;html=1;shape=mxgraph.aws3.vpc_peering;fillColor=#F58534;gradientColor=none;" parent="1" vertex="1">
          <mxGeometry x="84" y="465" width="55" height="45" as="geometry" />
        </mxCell>
        <mxCell id="WlBfQYCDGkGJMAmVKwzh-114" style="edgeStyle=orthogonalEdgeStyle;curved=1;rounded=0;orthogonalLoop=1;jettySize=auto;html=1;entryX=0.557;entryY=0.007;entryDx=0;entryDy=0;entryPerimeter=0;" parent="1" source="WlBfQYCDGkGJMAmVKwzh-1" target="WlBfQYCDGkGJMAmVKwzh-110" edge="1">
          <mxGeometry relative="1" as="geometry" />
        </mxCell>
        <mxCell id="WlBfQYCDGkGJMAmVKwzh-119" value="167" style="text;html=1;align=center;verticalAlign=middle;resizable=0;points=[];autosize=1;strokeColor=none;fillColor=none;" parent="1" vertex="1">
          <mxGeometry x="225" y="370" width="40" height="30" as="geometry" />
        </mxCell>
        <mxCell id="WlBfQYCDGkGJMAmVKwzh-132" value="VPC" style="sketch=0;outlineConnect=0;gradientColor=none;html=1;whiteSpace=wrap;fontSize=12;fontStyle=0;shape=mxgraph.aws4.group;grIcon=mxgraph.aws4.group_vpc;strokeColor=#879196;fillColor=none;verticalAlign=top;align=left;spacingLeft=30;fontColor=#879196;dashed=0;movable=1;resizable=1;rotatable=1;deletable=1;editable=1;locked=0;connectable=1;" parent="1" vertex="1">
          <mxGeometry x="561" y="629" width="353" height="349" as="geometry" />
        </mxCell>
        <mxCell id="WlBfQYCDGkGJMAmVKwzh-133" value="cbe-&amp;nbsp;&lt;span style=&quot;color: rgb(22, 25, 31); font-family: &amp;quot;Amazon Ember&amp;quot;, &amp;quot;Helvetica Neue&amp;quot;, Roboto, Arial, sans-serif; font-size: 14px; text-align: start; background-color: rgb(241, 250, 255);&quot;&gt;172.31.0.0/16&lt;/span&gt;" style="text;html=1;align=center;verticalAlign=middle;resizable=0;points=[];autosize=1;strokeColor=none;fillColor=none;" parent="1" vertex="1">
          <mxGeometry x="621" y="636" width="132" height="29" as="geometry" />
        </mxCell>
        <mxCell id="WlBfQYCDGkGJMAmVKwzh-134" value="us-east-1" style="text;html=1;align=center;verticalAlign=middle;resizable=0;points=[];autosize=1;strokeColor=none;fillColor=none;" parent="1" vertex="1">
          <mxGeometry x="849" y="610" width="68" height="26" as="geometry" />
        </mxCell>
        <mxCell id="WlBfQYCDGkGJMAmVKwzh-136" value="Private subnet" style="points=[[0,0],[0.25,0],[0.5,0],[0.75,0],[1,0],[1,0.25],[1,0.5],[1,0.75],[1,1],[0.75,1],[0.5,1],[0.25,1],[0,1],[0,0.75],[0,0.5],[0,0.25]];outlineConnect=0;gradientColor=none;html=1;whiteSpace=wrap;fontSize=12;fontStyle=0;container=1;pointerEvents=0;collapsible=0;recursiveResize=0;shape=mxgraph.aws4.group;grIcon=mxgraph.aws4.group_security_group;grStroke=0;strokeColor=#00A4A6;fillColor=#E6F6F7;verticalAlign=top;align=left;spacingLeft=30;fontColor=#147EBA;dashed=0;" parent="1" vertex="1">
          <mxGeometry x="602" y="715" width="240.00000000000006" height="231" as="geometry" />
        </mxCell>
        <mxCell id="WlBfQYCDGkGJMAmVKwzh-137" value="" style="group" parent="WlBfQYCDGkGJMAmVKwzh-136" vertex="1" connectable="0">
          <mxGeometry x="20" y="75" width="82" height="85" as="geometry" />
        </mxCell>
        <mxCell id="WlBfQYCDGkGJMAmVKwzh-138" value="" style="rounded=1;arcSize=10;dashed=1;strokeColor=#ff0000;fillColor=none;gradientColor=none;dashPattern=8 4;strokeWidth=2;movable=1;resizable=1;rotatable=1;deletable=1;editable=1;locked=0;connectable=1;" parent="WlBfQYCDGkGJMAmVKwzh-137" vertex="1">
          <mxGeometry width="70" height="85" as="geometry" />
        </mxCell>
        <mxCell id="WlBfQYCDGkGJMAmVKwzh-139" value="peer-ec2" style="outlineConnect=0;dashed=0;verticalLabelPosition=bottom;verticalAlign=top;align=center;html=1;shape=mxgraph.aws3.ec2;fillColor=#F58534;gradientColor=none;" parent="WlBfQYCDGkGJMAmVKwzh-137" vertex="1">
          <mxGeometry x="10.88" width="48.25" height="32.69230769230769" as="geometry" />
        </mxCell>
        <mxCell id="WlBfQYCDGkGJMAmVKwzh-140" value="" style="outlineConnect=0;dashed=0;verticalLabelPosition=bottom;verticalAlign=top;align=center;html=1;shape=mxgraph.aws3.role;fillColor=#759C3E;gradientColor=none;" parent="WlBfQYCDGkGJMAmVKwzh-137" vertex="1">
          <mxGeometry x="-10" y="-9.807692307692308" width="40" height="19.615384615384617" as="geometry" />
        </mxCell>
        <mxCell id="WlBfQYCDGkGJMAmVKwzh-141" value="&lt;span style=&quot;color: rgb(22, 25, 31); font-family: &amp;quot;Amazon Ember&amp;quot;, &amp;quot;Helvetica Neue&amp;quot;, Roboto, Arial, sans-serif; text-align: start; text-wrap: wrap; background-color: rgb(242, 243, 243);&quot;&gt;&lt;font style=&quot;font-size: 11px;&quot;&gt;52d&lt;/font&gt;&lt;/span&gt;" style="text;html=1;align=center;verticalAlign=middle;resizable=0;points=[];autosize=1;strokeColor=none;fillColor=none;" parent="WlBfQYCDGkGJMAmVKwzh-137" vertex="1">
          <mxGeometry x="45" y="-24" width="37" height="26" as="geometry" />
        </mxCell>
        <mxCell id="WlBfQYCDGkGJMAmVKwzh-142" value="&lt;span style=&quot;color: rgb(22, 25, 31); font-family: &amp;quot;Amazon Ember&amp;quot;, &amp;quot;Helvetica Neue&amp;quot;, Roboto, Arial, sans-serif; font-size: 14px; text-align: start; text-wrap: wrap; background-color: rgb(255, 255, 255);&quot;&gt;980-&lt;/span&gt;&lt;span style=&quot;font-family: &amp;quot;Times New Roman&amp;quot;; font-size: 14px; text-align: start; white-space-collapse: preserve;&quot;&gt;172.31.102.103&lt;/span&gt;" style="text;html=1;align=center;verticalAlign=middle;resizable=0;points=[];autosize=1;strokeColor=none;fillColor=none;" parent="WlBfQYCDGkGJMAmVKwzh-136" vertex="1">
          <mxGeometry x="-11" y="171" width="133" height="29" as="geometry" />
        </mxCell>
        <mxCell id="WlBfQYCDGkGJMAmVKwzh-143" value="ce5" style="text;html=1;align=center;verticalAlign=middle;resizable=0;points=[];autosize=1;strokeColor=none;fillColor=none;" parent="WlBfQYCDGkGJMAmVKwzh-136" vertex="1">
          <mxGeometry x="37" y="12" width="37" height="26" as="geometry" />
        </mxCell>
        <mxCell id="WlBfQYCDGkGJMAmVKwzh-144" value="prv-rt-" style="sketch=0;outlineConnect=0;fontColor=#232F3E;gradientColor=none;fillColor=#8C4FFF;strokeColor=none;dashed=0;verticalLabelPosition=bottom;verticalAlign=top;align=center;html=1;fontSize=12;fontStyle=0;aspect=fixed;pointerEvents=1;shape=mxgraph.aws4.route_table;" parent="WlBfQYCDGkGJMAmVKwzh-136" vertex="1">
          <mxGeometry x="198.95000000000005" y="-27" width="41.05" height="40" as="geometry" />
        </mxCell>
      </root>
    </mxGraphModel>
  </diagram>
</mxfile>
